<?xml version="1.0" encoding="UTF-8"?>
<svg version="1.1" viewBox="0 0 2048 2048" width="650" height="650" xmlns="http://www.w3.org/2000/svg">
<path transform="translate(0)" d="m0 0h2048v2048h-2048z" fill="#004AAB"/>
<path transform="translate(1020,728)" d="m0 0h22l37 4 25 5 26 8 24 9 28 14 21 13 17 12 16 13 17 16 9 10 13 16 14 21 7 12 44 1 1 1v30h-29l6 16 7 23 7 31 4 36v34l-4 39-5 26-7 24-10 24-8 17-12 21-12 18-10 13-11 12-7 8-15 14-14 11-12 9-22 14-26 14-21 9-27 9-18 4-16 3-27 3h-36l-33-4-27-6-25-8-25-10-20-10-23-14-22-16-13-11-8-7-12-12-9-11-12-15-14-22-13-24-12-28-8-24-3-14h-7l-3-7-1-8-1-62-4-10-8-5-7-2h-13l-1 93-1 1h-36v-227h67l14 3 10 5 9 9 1 4h3l2-5 12-23 13-21 13-17 10-11 19-19 11-9 10-8 21-14 15-9 19-10 26-11 21-7 21-5 18-3z" fill="#004AAB"/>
<path transform="translate(1019,505)" d="m0 0 4 2 7 13 1 5 1 53 3 17 6 18 8 16 10 18 2 3 16-22 10-21 4-15 2-18 2-26 3-10 6-10 7-6 1 4-1 6v15l3 13 8 24 5 28v16l-3 21v4l16-16 12-17 9-19 7-24 5-20 8-13 5-6 3-2h3l-2 9-2 7-1 18 3 31 1 9v24l-4 21-4 12-4 8 1 1 11-7 15-9 10-8 10-10 9-14 7-12 11-24 7-9 11-9 6-3h2l-2 5-7 15-2 10-2 27-3 22-7 21-8 16-8 12-4 5 10-2 22-6 17-7 18-11 12-11 10-13 9-11 10-10 8-4 6-2h6l-2 4-9 10-7 15-9 30-5 12-9 17-11 13-7 8-14 12-9 6 11-2 23-2 18-4 15-6 11-6 14-11 15-14 12-9 8-4 9-2h7l-2 4-8 6-9 10-8 15-6 14-12 20-9 10-1 2h-2l-2 4-13 11-19 12-8 3-1 2 7-1 33-1 21-4 13-5 19-10 20-13 9-4 4-1h18v3l-15 8-10 10-7 10-12 17-12 13-10 9-18 11-14 7-5 2 26 6 6 1h10l23-4 17-6 29-14 14-4h16l2 3-9 4-12 6-12 11-7 7-7 8-6 6h-100v227h98v-31h-60l-1-1v-69h27l8 6 16 8 12 4 14 4 1 25 3 21 4 11 7 11 8 6 11 5 8 2 27 1 5 5 2 4-3 1-12-3-13 1-22 6-16 5-13 3-8 1h-17l-17-2-15-3 13 12 14 9 15 7 15 4 20 4 16 4 10 6 5 5 5 6v2l-19-4h-12l-23 4-14 2h-30l-16-3-15-5h-3l13 16 7 8 7 7 13 9 16 8 24 10 14 7 8 7 6 9v3l-6-2-11-5-7-2-10-1-30-1-26-2-20-5-13-5-11-6-5-4 2 6 6 12 10 21 11 14 7 7 13 10 20 13 11 8 8 11 4 8v5l-6-3-10-7-11-5-12-3-14-2-21-6-16-7-14-8-14-11-10-10 3 16 2 17 5 19 10 19 8 10 11 12 13 13 9 14 4 13v5l-5-2-9-10-11-8-13-6-20-9-16-10-11-9-12-12-13-18-6-11-2 26v15l3 16 5 15 15 30 11 17 5 12 1 3v13l-3 1-9-15-10-9-15-10-11-7-11-9-13-13-11-15-9-16-7-19v9l-4 27v16l4 20 8 21 11 23 2 13-1 18h-3l-6-16-7-10-13-13-8-7-10-10-10-13-9-16-7-18-3-12h-2l-2 9-4 10-3 9-1 8v28l4 17 10 30 2 13v10l-3 7h-3l-4-15-6-11-10-13-12-14-12-17-10-18-6-16-2-8-1-9-1-30-4 14-8 15-11 12-7 8-8 14-4 15v35l3 23v17l-3 11-5 8h-4l-1-13-5-16-8-16-10-21-4-13-3-15v-35l2-9v-5l-10 13-10 11-9 14-5 12-4 12-4 24-1 26-3 13-6 10-4 4h-3l1-11v-9l-4-18-7-20-2-5-4-21v-29l4-21-8 7-12 11-7 8-6 10-6 14-4 13-6 28-5 12-6 8-7 6-3-1 5-19v-11l-6-37v-22l3-19 5-17 5-12 8-14 10-15 5-12 2-7 1-14-5 3-7 8-8 14-4 11-2 8-6 18-5 10-12 16-17 17-17 13-15 11-11 8-9 10-6 10-2 4h-3v-12l4-14 10-16 12-18 8-16 5-12 4-16v-19l-3-16-1-1-6 11-10 13-17 17-13 9-23 12-16 9-6 5-8 10-2 3h-3v-8l2-9 6-11 8-10 12-14 9-12 7-12 5-14 3-10 4-28 1-9-7 11-11 12-12 12-15 10-21 10-35 12-11 6-11 10-3 1 1-10 5-10 9-10 9-8 14-11 11-11 11-15 9-19 4-14 3-15 4-12h-2l-2 4-8 9-16 12-12 7-19 8-19 5-32 5-13 4-12 7-4 3h-2l1-6 6-10 5-5 8-7 17-10 12-7 13-10 10-10 9-12 8-16 9-22 1-3-14 8-19 7-23 5h-31l-20-3-11 1-15 5-4 2h-3l2-6 5-6h2v-2l11-7 19-7 19-6 16-7 12-8 11-9 10-11 8-10 7-7 1-2-11 4-14 3h-28l-31-6-29-7-6-1h-12l-8 2h-7l3-5 8-6 9-4 18-3 28-3 5-2 9-2 19-8 17-11 13-9h-20l1-8 2-9 1-40v-114l21-4h1l1 198h36l1-93 1-1h13l11 4 5 4 4 10 1 62 2 10 1 4 7 1 7 24 9 24 11 24 13 23 12 18 8 10 9 11 11 12 9 9 11 9 13 10 12 8 19 12 27 14 23 9 25 8 27 6 33 4h36l33-4 24-5 20-6 20-8 20-9 23-13 24-16 14-11 12-11 8-7 13-14 11-14 10-14 9-15 13-24 9-21 6-16 6-22 4-22 4-39v-34l-4-36-7-31-7-23-5-12v-4h29l-1-30-44-1-8-13-10-15-9-12-9-11-16-17-8-7-12-10-18-13-19-12-27-14-21-9-28-9-21-5-18-3-30-3h-22l-37 4-24 5-18 5-21 8-24 11-20 11-24 16-13 10-14 12-13 13h-2l-2 4-10 11-13 18-16 27-10 19h-3l-4-6-9-8-10-4-11-2-67-1v9l-10-3-9-6-18-13-15-15-11-14-6-6v-2l-4-2-8-6-14-7v-3l2-1h16l15 5 27 15 16 8 18 6 11 3h11l18-6 11-4 12-2h16l13 2-15-7-21-10-12-9-11-11-8-10-10-15-12-22-10-18-10-12-12-9 1-2h7l11 4 11 6 13 12 11 9 10 8 18 10 15 6 12 2 26 1-5-5-13-12-7-7-11-15-8-16-6-14-7-20-7-13-12-12v-3l8 1 12 5 8 6 10 10 9 11 9 9 14 11 19 10 23 7 17 5-4-5-6-5-7-8-10-13-10-18-6-16-4-18-3-17-4-15-7-13-5-7 5-1 12 7 7 6 10 14 10 17 11 14 10 10 16 11 19 8 20 8 4 2-10-13-9-15-7-15-6-20-2-16-1-34-4-18-6-13v-3l5 1 8 6 8 9 8 15 10 24 8 14 11 13 5 6 12 9 22 12 7 4-6-15-4-16-1-7v-34l4-21 2-5 1-7v-24l-2-7-1-1v-5l5 2 7 7 7 14 5 25 5 22 6 16 7 12 7 9 11 12 8 9 4 4-3-10v-23l4-22 11-33 10-27 2-12z" fill="#000101"/>
<path transform="translate(1024,1014)" d="m0 0 5 1 11 13 12 15 9 12v17l2 9 4 8 7 9 17 12 7 15 10 26 9 28 9 36 7 33 2 11v9l-10 5-26 9-18 5-22 4-7 1h-41l-22-4-24-6-20-7-25-11-2-2 2-16 6-31 10-38 12-36 11-27 2-2 16-1 12-3 10-5 4-4h2l2-4 6-10 3-9 2-13v-20l-4-15 1-4 7-7z" fill="#000101"/>
<path transform="translate(351,882)" d="m0 0h49l2 2 3 13 7 43 12 74 3 21 21-139 3-13 1-1h49l2 5v221l-1 1h-35l-1-1v-130l-1-9-7 49-13 87-2 4h-34l-2-3-16-96-6-35-1-7v-8l-1 1v148h-33v-226z" fill="#FEFEFE"/>
<path transform="translate(1043,873)" d="m0 0 4 2 9 6 12 5 25 4 11 4 11 7 3 3-3-8 1-7 3-3 8-1-1-2v-7l4-3h8l2 2 1 9 7 2 3 4v9l-2 5 1-1 9-7 10-5 8-2 17-2 13-4 8-4 8-6-1 11-6 11-10 10-11 5-11 3h-3l2 4-1 9-6 4-1 2 6 2 5 7 4 13 2 19 4 8 6 5v1h-7l-10-3-6-4-1-4-6 2h-12l-6-3-5-5-1-3v-7l7-8 7 1 9 6 4 2-2-9-4-5-6-2h-9l-9 6-4 5v20l10 9 7 11 6 15 3 10v7h9l9 4 10 7 6 7 4 9 1 5v17l-8 16-5 6-16 11-15 9-10 8-8 8-1 2h-3v-8l5-14 7-7v-1l-10-3-8-6-3 1-4 4-8 3h-6v2l4 2 6 8 4 11 1 10-3-1-7-8-7-6-15-10-11-7-13-10-8-11-3-8-1-6v-8l3-12 5-10 7-6 14-8h10l1-9 4-13 10-19 10-10 2-1v-19l-6-8-6-4h-10l-7 3-4 5-2 7 6-1 8-7 7 1 5 5 1 2v10l-5 5-7 3h-17l-5 5-9 3-12 1 4-3 4-2 3-6 4-29 5-10 5-4 3-2-6-5-1-2v-7l1-4-16-4-10-6-9-9-4-8-3-10z" fill="#FEFEFE"/>
<path transform="translate(655,882)" d="m0 0h67l14 3 10 5 9 9 6 12 2 9 1 9v28l-3 16-7 14-9 8-3 2 8 5 7 8 4 9 3 16 1 63 2 6-1 5h-36l-3-7-1-8-1-62-4-10-8-5-7-2h-13l-1 93-1 1h-36z" fill="#FEFEFE"/>
<path transform="translate(813,882)" d="m0 0h52l3 9 8 51 6 38 5 30 5 32 5 28 4 30 1 8-2 1h-35l-1-1-6-39h-41l-6 38-1 2h-34l1-13 7-40 9-59 13-80 5-33z" fill="#FEFEFE"/>
<path transform="translate(1601,882)" d="m0 0h34l2 1 1 96h36l1-95 1-2h36l2 3v222l-1 2h-37l-1-3v-65l-1-29h-37v96l-1 1h-36l-1-1v-224z" fill="#FEFEFE"/>
<path transform="translate(841,863)" d="m0 0h31l32 5 32 8 8 4v2l-14 7-7 7-5 9-4 12-2 13 1 19 4 15 8 17 13 15 8 8 8 7 16 16 8 13 3 8 1 12-2 11-5 6-10 4-9-2-7-6-3-9v-24h-32l-2 1v23l2 14 5 12 7 9 1 5-6 14-10 28-9 29-7 29-8 36-1 2-5-2-13-10-14-12 1-10 8-38 10-35 7-21 2-5 20-1-2-8-4-30-6-35-4-25-9-57-6-36-5-31-1-3-38-1 2-5 9-11z" fill="#004AAB"/>
<path transform="translate(525,882)" d="m0 0h36l1 2 1 183 3 7 6 4 10 2 10-5 3-6 1-6v-179l1-2h33l2 1 1 4v146l-1 35-4 16-4 8-8 9-11 7-12 4h-29l-11-3-11-6-7-7-7-14-4-15v-184z" fill="#FEFEFE"/>
<path transform="translate(1511,879)" d="m0 0h27l12 3 11 6 8 8 7 14 3 12 1 8v27l-2 1h-33l-2-1v-17l-1-17-4-7-7-4h-10l-8 5-3 7-1 9v127l2 10 4 6 5 3 8 1 9-4 4-5 1-2 1-43 1-1h35l1 2v32l-2 16-4 12-6 9-5 5-8 6-14 5h-29l-13-4-11-6-7-8-7-14-2-9-1-9v-135l2-13 4-10 6-9 8-8 12-6z" fill="#FEFEFE"/>
<path transform="translate(950,879)" d="m0 0h29l13 4 9 6 5 5 6 8 5 14 2 13v15l-1 1h-35l-1-20-3-8-5-4-3-1h-10l-8 5-2 5-1 6v9l2 10 5 10 9 12 15 15 8 7 14 15 8 13 3 5 5 19v23l-4 16-6 12-4 5-8 6-8 4-12 3h-27l-12-4-10-6-9-10-5-11-2-7-1-10v-23l4-2 31 1 1 24 3 9 6 5 9 2 10-4 4-5 2-11-1-12-4-10-8-12-20-20-8-7-7-7-9-11-8-17-4-15-1-19 3-17 5-12 6-8 8-7 13-6z" fill="#FEFEFE"/>
<path transform="translate(1356,882)" d="m0 0h97l1 1v30l-1 1h-60l1 62 47 1 1 1v29l-1 1h-48l1 69h52l8 1v31h-98z" fill="#FEFEFE"/>
<path transform="translate(1181,863)" d="m0 0h42l10 11 4 6v2l-8 1 1 30 36 1 1 194 7 2-2 9-3 7h-2l-6-20-10-29-14-34-14-29-13-23-8-12-7-10-5-6-2-13-4-11-5-5-4-2 1-3 5-3 1-9-1-4 17-5 9-5 8-8 6-11 1-10-10 8-13 5-11 2-15 2-11 4-11 8-1 2-2-1 2-5v-9l-4-4-6-2-1-9-3-2v-2l17-4z" fill="#000101"/>
<path transform="translate(1231,882)" d="m0 0h109l1 1v30l-37 1v194l-1 1h-36l-1-1v-194h-36l-1-1v-30z" fill="#FEFEFE"/>
<path transform="translate(1006,775)" d="m0 0h52l25 5 25 7 25 10 16 8 20 11 2 3h-52l-18 1-28 5-27 7-17 6-8-1-18-6-24-6-23-4-11-1-50-1 1-3 26-14 17-8 18-7 25-7z" fill="#010101"/>
<path transform="translate(1154,944)" d="m0 0h9l7 3 4 5 1 2v7l-4-1-9-6-7-1-6 7v7l3 5 5 4 3 1 12 1 7 10 11 17 12 21 12 24 10 25 10 28 10 33 7 25-1 6-10 16-12 16-3 3h-2l-13-52-9-29-7-21 1-5 6-9 4-9v-17l-3-10-6-9-9-7-8-4-12-2-3-14-6-16-6-10-6-7-6-5v-20l7-8z" fill="#000102"/>
<path transform="translate(909,1049)" d="m0 0h2l2 25 4 12 6 10 4 4-1 6-8 20-12 36-7 25-9 40-3 13-1 2-5-2-13-10-14-12 1-10 8-38 10-35 7-21 2-5 20-1-2-8-3-20v-8l8-16z" fill="#000101"/>
<path transform="translate(1168,1114)" d="m0 0 4 1 6 16 9 29 9 38 4 21v8l-9 8-17 12-5 2-3-8-8-38-10-37-8-25v-3l15-15z" fill="#000101"/>
<path transform="translate(1133,987)" d="m0 0 4 2 7 10 6 13 4 15 1 13 16 3 7 4 6 7 3 10-1 13-6 9-8 6-6 2h-11l-6-4-3-5 1-6 4-5 2-1h8l6 5 1 4 4-4 1-2v-10l-5-8-5-2h-11l-8 4-3 1 1-13-4-13-4-7-3-1-1 5-4 10-1 6v11l-2 1-9-4h-10l-8 4-3 9 2 9 2 6h2l1-6 5-4 8-1 7 6v8l-4 5-6 2h-10l-7-3-7-6-4-6-3-13 3-10 6-8 5-4 10-3h8l1-13 6-20 8-14 5-5z" fill="#004AAB"/>
<path transform="translate(832,1068)" d="m0 0h26l1 1 2 12v11l-13 40-6 22-3 10-2 10-4 16-4-1-11-16-12-21v-7l10-34 9-27 6-15z" fill="#000101"/>
<path transform="translate(562,977)" d="m0 0 22 2 13 1v83l-2 8-4 6-10 4-9-2-6-4-3-4-1-4z" fill="#004AAB"/>
<path transform="translate(1138,830)" d="m0 0h33l17 1 8 6 14 13v1l-47 1-31 4-23 5-17 5-6 1-33-17v-2l29-9 22-5 9-2z" fill="#010101"/>
<path transform="translate(877,830)" d="m0 0h35l24 2 25 5 40 11v2l-25 12-8 5-6-1-21-6-25-5-22-3-39-1v-3l14-12z" fill="#010101"/>
<path transform="translate(940 1e3)" d="m0 0 4 1 12 11 14 14 8 13 3 8 1 12-2 11-5 6-10 4-9-2-7-6-3-9v-24h-31l2-5 18-27z" fill="#000204"/>
<path transform="translate(1104,944)" d="m0 0h10l8 6 5 7v19l-10 9-4 5-9 19-3 10-2 9-10 1-5 1-13-17-9-11-11-12 2-4 14-11 8-5v6l-4 7-6 3 10-1 11-4 3-4h17l7-3 4-4v-10l-3-5-4-2-7 1-8 7-4-1 1-7 6-7z" fill="#000204"/>
<path transform="translate(1393,933)" d="m0 0 5 1 11 7 10 7 11 5 9 2h31v34l-9 4-17 4h-2l-1-19-47-1-1-1z" fill="#000204"/>
<path transform="translate(841,863)" d="m0 0h31l32 5 32 8 8 4v2l-14 7-7 7-4 6-10-1-32-9-9-3-3-6-38-1 2-5 9-11z" fill="#000102"/>
<path transform="translate(1181,863)" d="m0 0h42l10 11 4 6v2l-8 1v21l-27 5-7 1 3-2 9-5 8-8 6-11 1-10-10 8-13 5-11 2-15 2-11 4-11 8-1 2-2-1 2-5v-9l-4-4-6-2-1-9-3-2v-2l17-4z" fill="#000204"/>
<path transform="translate(693,913)" d="m0 0h15l10 3 5 5 3 8v36l-2 8-6 7-9 3h-17v-69z" fill="#000204"/>
<path transform="translate(923,980)" d="m0 0 5 4 9 11 5 6h-2l-2 4-18 27-6 8-2 1-1 8h-2l-2 5-8 15-2 3-2-6-5-31v-6l12-19 13-19z" fill="#004AAB"/>
<path transform="translate(910,942)" d="m0 0h2l3 16 6 15 3 5-2 5-11 15-8 12-12 19h-2l-5-30-2-15v-9l11-13 8-10z" fill="#000204"/>
<path transform="translate(836,929)" d="m0 0h2l7 48 5 34 4 25-7 1h-13l-13-1 2-17 10-68z" fill="#004AAB"/>
<path transform="translate(804,922)" d="m0 0h1l-1 13-18 113-2 10-2 1-2-5-1-11v-22l3-31 5-26 6-20 6-15z" fill="#000306"/>
<path transform="translate(969,1029)" d="m0 0 3 1 6 10 3 8 1 12-2 11-5 6-10 4-9-2-7-6-3-9v-5h3l14-22z" fill="#004AAB"/>
<path transform="translate(1024,922)" d="m0 0 6 1 19 14 7 5-2 4-19 14-8 6-4-2-12-9-12-8 1-2 18-1 1-18z" fill="#000101"/>
<path transform="translate(562,977)" d="m0 0 22 2 12 1v40l-5-1-19-9-10-7z" fill="#010101"/>
<path transform="translate(1024,860)" d="m0 0h5l16 8 12 7 1 5h-6l-9-7 1 3v8l-9 6-7 4-5-1-25-13-5-2 1-3 16-8z" fill="#000101"/>
<path transform="translate(562,1044)" d="m0 0 34 1v24l-5 8-10 4-9-2-6-4-3-4-1-4z" fill="#000101"/>
<path transform="translate(1471,1062)" d="m0 0h1l2 14 4 11 7 11 3 4-10-1-20-5-3-1v13h-1v-30h-60v-1h32l-7-8v-1h26l20-2 5-1z" fill="#004AAB"/>
<path transform="translate(1093,1044)" d="m0 0h2l5 9v2l4 1-8 4-3 9 2 9 2 6h2l1-6 5-4 8-1 7 6v8l-4 5-6 2h-10l-7-3-7-6-4-6-3-13 3-10 6-8z" fill="#004AAB"/>
<path transform="translate(562,898)" d="m0 0 8 1 22 8 4 1v36l-9-6-11-10-8-7-5-4-1-3z" fill="#010101"/>
<path transform="translate(836,929)" d="m0 0h2l7 48v10l-14 24-6 10h-1v-9l9-61z" fill="#00060E"/>
<path transform="translate(1104,944)" d="m0 0h10l8 6 5 7v19l-10 9-4 5-4 8-12-15-5-6h14l7-3 4-4v-10l-3-5-4-2-7 1-8 7-4-1 1-7 6-7z" fill="#00050A"/>
<path transform="translate(1117,1011)" d="m0 0 4 2 10 13v5l-4 7-2 10v11l-2 1-9-4-14-1-5-9v-3l8-2h8l1-13z" fill="#000408"/>
<path transform="translate(1509,1027)" d="m0 0h22l10 4 2 2v5l-1 1-17 3-16 6z" fill="#010101"/>
<path transform="translate(1057,902)" d="m0 0 5 2 10 5 13 3 1 3-1 2-1 9-3 4-5-2-17-13-9-6v-3z" fill="#000306"/>
<path transform="translate(1132,1097)" d="m0 0 5 2 5 4 10 3v3l-7 8-4 12-1 7-3-4-8-21-2-5 1-5h2z" fill="#00040A"/>
<path transform="translate(1517,944)" d="m0 0h14l9 3 4 2-1 4-2 1-14 2-15 8-4-1 1-18z" fill="#000101"/>
<path transform="translate(971,965)" d="m0 0 5 2 13 11 11 9 1 4-5 5-4-1-9-9-8-7-8-8 2-4z" fill="#000307"/>
<path transform="translate(1117,970)" d="m0 0 5 1 3 2v2l2 1-10 9-4 5-4 8-12-15-5-6h14l7-3z" fill="#004AAB"/>
<path transform="translate(961,911)" d="m0 0h10l6 3 4 5-1 6-4 4-7-1-14-8-2-4z" fill="#000205"/>
<path transform="translate(1221,884)" d="m0 0h8v20l-27 5-7 1 3-2 9-5 8-8z" fill="#004AAB"/>
<path transform="translate(872,915)" d="m0 0 11 3 10 4-3 6-10 11-4 4-1-1-3-18z" fill="#000205"/>
<path transform="translate(1257,914)" d="m0 0h9v187h-1l-1-170-5-13z" fill="#004AAB"/>
<path transform="translate(1154,944)" d="m0 0h9l7 3 4 5 1 2v7l-4-1-9-6-7-1h-3l-2-4-3-1z" fill="#004AAB"/>
<path transform="translate(1151,1074)" d="m0 0 5 1 7 15v4h-8l-6-4-3-5 1-6z" fill="#000307"/>
<path transform="translate(1170,1044)" d="m0 0 5 1 7 6 4 8 1 5v7l-2 2-4-5-11-23z" fill="#000409"/>
<path transform="translate(1104,944)" d="m0 0h10l-5 4-3 2-1 3-10 8-4-1 1-7 6-7z" fill="#004AAB"/>
<path transform="translate(632,914)" d="m0 0h1l1 47 15 2 2 2-10 5-5 2h-3l-1-7z" fill="#004AAB"/>
<path transform="translate(562,1064)" d="m0 0 5 4 15 7 7 2-4 3-4 1-9-2-6-4-3-4z" fill="#004AAB"/>
<path transform="translate(1125,874)" d="m0 0 3 1-1 1v9l-3 1h-8l-7-4v-3z" fill="#00050A"/>
<path transform="translate(520,976)" d="m0 0 4 1v5l-1 1h-10l1-4z" fill="#010101"/>
<path transform="translate(1396,913)" d="m0 0h8l4 2-8 3h-6l-1-4z" fill="#000C1A"/>
<path transform="translate(1112,1074)" d="m0 0 4 1 4 4v5l-4-1-3-6z" fill="#000205"/>
<path transform="translate(851,1029)" d="m0 0 2 3 1 4-7 1-1-2z" fill="#000D1D"/>
<path transform="translate(520,1050)" d="m0 0h5l-2 5-4 1-2-1 1-4z" fill="#00050A"/>
<path transform="translate(1143,1052)" d="m0 0h2l2 3-1 4-5 2 1-8z" fill="#00142F"/>
<path transform="translate(1151,891)" d="m0 0h1v7l5-1-5 5-2 3-2-1 2-5z" fill="#004AAB"/>
<path transform="translate(637,1027)" d="m0 0h4l-1 3-4 2h-3v-4z" fill="#004AAB"/>
</svg>
