<?xml version="1.0" standalone="no"?>
<!DOCTYPE svg PUBLIC "-//W3C//DTD SVG 20010904//EN"
 "http://www.w3.org/TR/2001/REC-SVG-20010904/DTD/svg10.dtd">
<svg version="1.0" xmlns="http://www.w3.org/2000/svg"
 width="500.000000pt" height="500.000000pt" viewBox="0 0 500.000000 500.000000"
 preserveAspectRatio="xMidYMid meet">

<g transform="translate(0.000000,500.000000) scale(0.100000,-0.100000)"
fill="#004AAD" stroke="none">
<path d="M1415 3504 c-161 -35 -266 -86 -362 -177 -82 -78 -127 -143 -166
-237 -40 -99 -49 -146 -50 -251 0 -119 14 -180 69 -298 37 -79 57 -106 127
-177 68 -67 100 -91 169 -124 151 -73 83 -69 1290 -70 1215 0 1151 -4 1307 72
66 32 101 57 165 121 135 135 196 282 196 472 0 195 -71 359 -215 493 -79 75
-144 113 -250 150 l-80 27 -1090 1 c-600 1 -1099 0 -1110 -2z m293 -351 l3
-43 -70 0 -71 0 0 -80 0 -80 55 0 55 0 0 -40 0 -40 -55 0 -54 0 -3 -112 -3
-113 -42 -3 -43 -3 0 281 0 281 113 -3 112 -3 3 -42z m282 22 c0 -25 -1 -25
-80 -25 -79 0 -80 0 -80 25 0 25 1 25 80 25 79 0 80 0 80 -25z m365 -20 c0
-40 0 -40 -42 -43 l-43 -3 -2 -232 -3 -232 -42 -3 -43 -3 0 235 0 236 -45 0
-45 0 0 45 0 46 133 -3 132 -3 0 -40z m244 18 c14 -11 32 -31 38 -44 18 -35
16 -174 -3 -214 -18 -39 -66 -65 -118 -65 l-36 0 0 -106 0 -105 -42 3 -43 3
-3 265 c-1 146 0 271 3 279 9 22 169 9 204 -16z m179 -210 l2 -233 71 0 70 0
-3 -42 -3 -43 -112 -3 -113 -3 0 281 0 281 43 -3 42 -3 3 -232z m366 228 c7
-10 86 -502 86 -531 0 -17 -7 -20 -40 -20 -43 0 -45 2 -55 63 l-6 38 -52 -3
c-47 -3 -52 -5 -55 -28 -7 -64 -11 -70 -47 -70 -18 0 -36 3 -39 8 -2 4 16 129
40 277 24 149 44 271 44 273 1 7 120 1 124 -7z m197 -18 c6 -16 20 -67 32
-115 12 -49 24 -88 27 -88 3 0 19 51 35 113 l30 112 34 3 c18 2 37 0 41 -5 5
-4 -16 -89 -46 -188 -48 -161 -54 -190 -54 -273 l0 -93 -42 3 -43 3 -6 110
c-5 92 -13 135 -52 262 -26 84 -47 160 -47 168 0 11 11 15 40 15 35 0 42 -4
51 -27z m-1311 -98 l0 -46 -127 3 -128 3 -3 43 -3 42 130 0 131 0 0 -45z m-90
-160 l0 -95 -35 0 -35 0 0 95 0 95 35 0 35 0 0 -95z m90 -160 l0 -45 -130 0
-130 0 0 45 0 45 130 0 130 0 0 -45z m-40 -100 c0 -25 -1 -25 -80 -25 -79 0
-80 0 -80 25 0 25 1 25 80 25 79 0 80 0 80 -25z m-170 -199 c0 -14 5 -28 10
-31 6 -4 10 7 10 24 0 17 5 31 10 31 6 0 10 -13 10 -30 0 -16 5 -30 10 -30 6
0 10 14 10 30 0 17 5 30 10 30 6 0 10 -16 10 -36 l0 -35 -47 3 c-46 3 -48 4
-51 36 -2 18 1 32 7 32 6 0 11 -11 11 -24z m174 -8 c15 -38 13 -46 -9 -28 -12
10 -18 10 -30 0 -18 -15 -19 -3 -5 34 13 35 27 33 44 -6z m84 25 c-12 -3 -18
-14 -18 -34 0 -16 -4 -29 -10 -29 -5 0 -10 16 -10 35 0 32 3 35 28 34 16 -1
20 -3 10 -6z m62 -8 c0 -8 7 -15 15 -15 8 0 15 7 15 15 0 8 5 15 10 15 6 0 10
-16 10 -35 0 -19 -4 -35 -10 -35 -5 0 -10 7 -10 15 0 8 -7 15 -15 15 -8 0 -15
-7 -15 -15 0 -8 -4 -15 -10 -15 -5 0 -10 16 -10 35 0 19 5 35 10 35 6 0 10 -7
10 -15z m110 -2 c1 -17 1 -17 11 0 16 28 29 19 29 -20 -1 -35 -2 -37 -15 -19
-13 17 -15 17 -21 3 -11 -29 -24 -19 -24 18 0 19 5 35 10 35 6 0 10 -8 10 -17z
m188 -15 c-2 -25 -8 -34 -25 -36 -20 -3 -23 1 -23 32 0 32 3 36 26 36 23 0 25
-3 22 -32z m133 25 l-25 -5 23 -18 c28 -20 20 -40 -15 -40 -21 0 -24 5 -24 35
0 33 2 35 33 34 26 -1 28 -3 8 -6z m78 -10 c10 -17 10 -17 11 0 0 9 5 17 11
17 11 0 3 -37 -13 -57 -14 -18 -29 -16 -22 1 3 8 1 24 -6 35 -13 26 4 29 19 4z
m131 -5 c0 -13 3 -34 5 -48 3 -14 3 -19 -1 -12 -3 6 -16 12 -29 12 -13 0 -25
-6 -28 -12 -2 -7 -8 -9 -13 -5 -4 4 -3 17 4 27 7 11 12 29 12 40 0 15 7 20 25
20 19 0 25 -5 25 -22z m66 11 c4 -8 9 -8 17 0 22 22 26 10 10 -24 -9 -19 -23
-35 -31 -35 -11 0 -12 3 -4 13 9 10 7 19 -4 35 -8 12 -11 22 -5 22 5 0 13 -5
17 -11z m94 -19 c0 -16 5 -30 10 -30 6 0 10 14 10 30 0 17 5 30 10 30 6 0 10
-13 10 -30 0 -16 5 -30 10 -30 6 0 10 14 10 30 0 45 17 36 23 -12 6 -41 -1
-66 -10 -40 -3 7 -23 12 -49 12 -44 0 -44 0 -44 35 0 19 5 35 10 35 6 0 10
-13 10 -30z m155 21 c-19 -8 -19 -8 0 -19 20 -11 20 -11 0 -12 l-20 -1 20 -15
c20 -15 19 -15 -5 -12 -20 2 -26 9 -28 36 -3 29 -1 32 25 31 24 0 25 -2 8 -8z
m93 2 c-21 -5 -24 -23 -5 -24 10 0 10 -2 0 -6 -18 -7 -16 -21 5 -26 10 -3 6
-5 -10 -6 -25 -1 -28 2 -28 34 0 32 3 35 28 34 16 -1 20 -3 10 -6z m-1098
-132 c0 -5 -8 -8 -17 -7 -12 1 -18 -6 -18 -19 0 -13 6 -20 18 -19 9 1 17 -3
17 -8 0 -5 -12 -8 -27 -6 -28 3 -40 25 -29 54 6 15 56 20 56 5z m100 -6 c19
-23 3 -57 -27 -53 -34 4 -51 31 -34 52 17 20 45 21 61 1z m150 4 c0 -5 -4 -8
-9 -5 -12 8 -34 -21 -26 -34 4 -6 13 -9 21 -6 8 3 14 1 14 -4 0 -6 -9 -10 -20
-10 -25 0 -41 29 -29 52 10 19 49 25 49 7z m110 -24 c0 -19 -4 -35 -10 -35 -5
0 -10 14 -10 30 0 20 -5 30 -15 30 -10 0 -15 -10 -15 -30 0 -16 -4 -30 -10
-30 -5 0 -10 16 -10 35 0 33 2 35 35 35 33 0 35 -2 35 -35z m103 13 c8 -12 7
-21 -2 -32 -19 -23 -58 -20 -66 4 -14 43 44 67 68 28z m95 -1 c2 -10 -4 -20
-15 -24 -10 -4 -21 -11 -25 -17 -4 -6 -8 6 -8 27 0 34 3 38 22 35 13 -2 24
-11 26 -21z m85 16 c-7 -2 -13 -18 -13 -34 0 -16 -4 -29 -10 -29 -5 0 -10 13
-10 29 0 16 -6 32 -12 34 -7 3 3 5 22 5 19 0 29 -2 23 -5z m110 -15 c8 -12 7
-21 -2 -32 -19 -23 -58 -20 -66 4 -14 43 44 67 68 28z m74 0 l10 -23 12 23
c17 32 31 27 31 -13 0 -19 -4 -35 -10 -35 -5 0 -10 8 -10 18 -1 16 -1 16 -11
-1 -10 -18 -11 -18 -25 0 -12 17 -13 17 -14 1 0 -34 -20 -18 -20 17 0 40 21
48 37 13z"/>
<path d="M2480 3020 c0 -84 1 -90 21 -90 47 0 59 17 59 85 0 85 -5 95 -46 95
l-34 0 0 -90z"/>
<path d="M3061 2968 c-7 -51 -15 -105 -18 -120 -5 -27 -4 -28 36 -28 36 0 42
3 37 18 -2 9 -10 58 -17 107 -6 50 -15 96 -19 103 -3 7 -12 -29 -19 -80z"/>
<path d="M2405 2460 c3 -5 8 -10 11 -10 2 0 4 5 4 10 0 6 -5 10 -11 10 -5 0
-7 -4 -4 -10z"/>
<path d="M2405 2430 c4 -6 11 -8 16 -5 14 9 11 15 -7 15 -8 0 -12 -5 -9 -10z"/>
<path d="M2550 2430 c0 -5 5 -10 10 -10 6 0 10 5 10 10 0 6 -4 10 -10 10 -5 0
-10 -4 -10 -10z"/>
<path d="M2748 2450 c-7 -24 -3 -38 8 -28 3 4 4 17 2 30 l-3 23 -7 -25z"/>
<path d="M2143 2324 c-8 -21 13 -42 28 -27 13 13 5 43 -11 43 -6 0 -13 -7 -17
-16z"/>
<path d="M2503 2324 c-8 -21 13 -42 28 -27 13 13 5 43 -11 43 -6 0 -13 -7 -17
-16z"/>
<path d="M2615 2330 c-3 -5 -1 -10 4 -10 6 0 11 5 11 10 0 6 -2 10 -4 10 -3 0
-8 -4 -11 -10z"/>
<path d="M2793 2324 c-8 -21 13 -42 28 -27 13 13 5 43 -11 43 -6 0 -13 -7 -17
-16z"/>
</g>
</svg>
